<?xml version="1.0" encoding="UTF-8" standalone="no"?>
<!-- Created with Inkscape (http://www.inkscape.org/) -->

<svg
   width="210mm"
   height="297mm"
   viewBox="0 0 210 297"
   version="1.1"
   id="svg5"
   xml:space="preserve"
   inkscape:export-filename="webasto.png"
   inkscape:export-xdpi="96"
   inkscape:export-ydpi="96"
   inkscape:version="1.2.1 (9c6d41e410, 2022-07-14)"
   sodipodi:docname="výkres.svg"
   xmlns:inkscape="http://www.inkscape.org/namespaces/inkscape"
   xmlns:sodipodi="http://sodipodi.sourceforge.net/DTD/sodipodi-0.dtd"
   xmlns="http://www.w3.org/2000/svg"
   xmlns:svg="http://www.w3.org/2000/svg"><sodipodi:namedview
     id="namedview7"
     pagecolor="#ffffff"
     bordercolor="#000000"
     borderopacity="0.25"
     inkscape:showpageshadow="2"
     inkscape:pageopacity="0.0"
     inkscape:pagecheckerboard="0"
     inkscape:deskcolor="#d1d1d1"
     inkscape:document-units="mm"
     showgrid="false"
     inkscape:zoom="0.51134004"
     inkscape:cx="-1024.7584"
     inkscape:cy="0.97782291"
     inkscape:window-width="1916"
     inkscape:window-height="1026"
     inkscape:window-x="0"
     inkscape:window-y="0"
     inkscape:window-maximized="1"
     inkscape:current-layer="layer1" /><defs
     id="defs2" /><g
     inkscape:label="Vrstva 1"
     inkscape:groupmode="layer"
     id="layer1"><rect
       style="fill:#008080;stroke:none;stroke-width:0.409129"
       id="rect1151"
       width="211.66667"
       height="31.75"
       x="-43.156372"
       y="6.0585346" /><rect
       style="fill:#008080;stroke:none;stroke-width:0.312477"
       id="rect1151-3"
       width="211.66667"
       height="18.520834"
       x="-381.82324"
       y="75.727486" /><rect
       style="fill:none;stroke:#000000;stroke-width:0.350702;stroke-opacity:1"
       id="rect1313"
       width="211.31596"
       height="158.39929"
       x="-42.981018"
       y="6.3208938" /><text
       xml:space="preserve"
       style="font-size:7.05556px;fill:#1a1a1a;stroke:none;stroke-width:0.4;stroke-opacity:1"
       x="-32.29303"
       y="23.976583"
       id="text1391"><tspan
         sodipodi:role="line"
         id="tspan1389"
         style="font-style:normal;font-variant:normal;font-weight:bold;font-stretch:normal;font-size:7.05556px;font-family:'Droid Sans';-inkscape-font-specification:'Droid Sans Bold';fill:#1a1a1a;stroke:none;stroke-width:0.4"
         x="-32.29303"
         y="23.976583">Webasto Traceability</tspan></text><g
       id="g1433"
       transform="matrix(0.61806916,0,0,0.61806916,-320.49521,-288.46118)"
       inkscape:export-filename="webasto.png"
       inkscape:export-xdpi="96"
       inkscape:export-ydpi="96"><path
         style="fill:#eb1a23;stroke-width:0.0245136"
         d="m 217.8611,380.48617 c -0.0572,-0.0632 -0.33661,-0.46377 -0.5081,-0.72832 -0.49153,-0.75829 -1.06016,-1.823 -1.39428,-2.61069 -0.0343,-0.0809 -0.10277,-0.24085 -0.15213,-0.35545 -0.18117,-0.42068 -0.43516,-1.12738 -0.61232,-1.70369 -0.0373,-0.12135 -0.0835,-0.27027 -0.10275,-0.33094 -0.0897,-0.28325 -0.30112,-1.12142 -0.30126,-1.19431 -1.2e-4,-0.067 0.21268,-0.25212 0.80884,-0.70345 0.84627,-0.64066 1.66851,-1.16466 2.56167,-1.63253 0.14831,-0.0777 0.30275,-0.15885 0.34319,-0.18037 0.40325,-0.21451 1.4221,-0.6505 1.99173,-0.8523 0.0708,-0.0251 0.18661,-0.0665 0.25739,-0.092 0.54129,-0.19502 1.48086,-0.45924 2.06527,-0.58078 0.0944,-0.0196 0.22675,-0.0511 0.29416,-0.07 0.0674,-0.0189 0.18324,-0.0417 0.2574,-0.0506 0.0742,-0.009 0.19549,-0.031 0.26965,-0.0491 0.0742,-0.018 0.23962,-0.0455 0.3677,-0.061 0.12808,-0.0155 0.277,-0.0396 0.33093,-0.0536 0.0539,-0.0139 0.25249,-0.04 0.44125,-0.0579 0.18875,-0.0179 0.43144,-0.0438 0.5393,-0.0575 0.8789,-0.1113 3.08602,-0.10535 3.89765,0.0105 0.13483,0.0192 0.37926,0.0467 0.54319,0.0609 0.16393,0.0143 0.33491,0.0366 0.37996,0.0496 0.045,0.013 0.20462,0.0399 0.35459,0.0597 0.14998,0.0198 0.2989,0.0459 0.33094,0.058 0.032,0.0121 0.11892,0.0299 0.19307,0.0394 0.0742,0.01 0.20101,0.034 0.28191,0.0544 0.0809,0.0204 0.2243,0.0521 0.31867,0.0705 0.31317,0.0611 0.99027,0.23962 1.31148,0.34572 0.0607,0.0201 0.17574,0.0529 0.25571,0.073 0.08,0.0201 0.16632,0.0477 0.19188,0.0614 0.0256,0.0137 0.098,0.0396 0.16102,0.0576 0.063,0.018 0.19176,0.062 0.28614,0.0977 0.0944,0.0357 0.22675,0.0849 0.29416,0.10934 0.9084,0.32902 2.28469,1.0075 3.23094,1.59276 0.91104,0.56349 2.21499,1.53048 2.27436,1.68663 0.0249,0.0654 0.0164,0.11914 -0.053,0.33792 -0.0257,0.0809 -0.0692,0.22982 -0.0967,0.33093 -0.15214,0.55974 -0.25088,0.88564 -0.32072,1.05863 -0.0255,0.0632 -0.0464,0.13283 -0.0464,0.1548 0,0.022 -0.0207,0.0916 -0.046,0.15479 -0.0253,0.0632 -0.0756,0.19759 -0.11176,0.29871 -0.32709,0.91492 -0.87978,2.11695 -1.33565,2.90486 -0.3522,0.60872 -0.39283,0.67456 -0.70211,1.13784 -0.31947,0.47852 -0.36593,0.54074 -0.40403,0.54104 -0.0209,2.4e-4 -0.0815,-0.0451 -0.13483,-0.10051 -0.4492,-0.46733 -1.46521,-1.2601 -2.20143,-1.71776 -0.90631,-0.56338 -1.5953,-0.89644 -2.67561,-1.2934 -0.35674,-0.13108 -1.01372,-0.32323 -1.27471,-0.37282 -0.0674,-0.0128 -0.16669,-0.0389 -0.22062,-0.0581 -0.0539,-0.0191 -0.17527,-0.0455 -0.26965,-0.0587 -0.0944,-0.0131 -0.25433,-0.0403 -0.35545,-0.0604 -0.10112,-0.0201 -0.36035,-0.062 -0.57607,-0.0932 -0.36724,-0.0531 -0.46792,-0.0567 -1.58112,-0.0567 -1.00431,0 -1.22317,0.006 -1.40953,0.0408 -0.12134,0.0224 -0.29233,0.048 -0.37996,0.0567 -0.18588,0.0186 -0.56208,0.0877 -0.94378,0.1734 -1.04595,0.23485 -2.02364,0.58122 -3.02721,1.07246 -0.0605,0.0296 -0.31426,0.16834 -0.56381,0.30824 -1.003,0.56226 -1.79235,1.13765 -2.68481,1.95703 l -0.29933,0.27482 z"
         id="path1409" /><path
         style="fill:#0159aa;stroke-width:0.0245136"
         d="m 213.4256,389.37366 c -0.0787,-0.0908 -0.2754,-0.31267 -0.43719,-0.49303 -0.16179,-0.18036 -0.35284,-0.40114 -0.42455,-0.49063 -0.0717,-0.0895 -0.19513,-0.23993 -0.27427,-0.3343 -0.0791,-0.0944 -0.17489,-0.21382 -0.2128,-0.26543 -0.0379,-0.0516 -0.13545,-0.17846 -0.21676,-0.2819 -0.0813,-0.10345 -0.19943,-0.25978 -0.2625,-0.34742 -0.0631,-0.0876 -0.18238,-0.25256 -0.26516,-0.3665 -0.14653,-0.20169 -0.21176,-0.29631 -0.43987,-0.63802 -0.0607,-0.0909 -0.12826,-0.19161 -0.15019,-0.22384 -0.10103,-0.14846 -0.31925,-0.49558 -0.43752,-0.69596 -0.0716,-0.12134 -0.17179,-0.2868 -0.22262,-0.3677 -0.26649,-0.42417 -1.10225,-2.01635 -1.31949,-2.5137 -0.0321,-0.0736 -0.0838,-0.18892 -0.11491,-0.25633 -0.0311,-0.0674 -0.10746,-0.24391 -0.16975,-0.39222 -0.0623,-0.14831 -0.15082,-0.3579 -0.19672,-0.46576 -0.13268,-0.31179 -0.34857,-0.86491 -0.44012,-1.12762 -0.0188,-0.0539 -0.0632,-0.17527 -0.0986,-0.26965 -0.12905,-0.34368 -0.1641,-0.44357 -0.19786,-0.56381 -0.0189,-0.0674 -0.05,-0.16118 -0.0691,-0.20837 -0.0454,-0.11211 -0.19638,-0.60094 -0.32184,-1.04183 -0.0345,-0.12134 -0.0747,-0.25371 -0.0893,-0.29416 -0.0146,-0.0405 -0.0408,-0.13742 -0.0582,-0.2155 -0.0175,-0.0781 -0.0484,-0.19391 -0.0687,-0.2574 -0.0699,-0.21847 -0.16338,-0.58377 -0.16338,-0.63837 0,-0.0301 -0.0176,-0.0957 -0.0392,-0.14584 -0.0216,-0.0501 -0.0477,-0.15181 -0.0581,-0.22596 -0.0104,-0.0742 -0.0376,-0.21204 -0.0605,-0.30642 -0.10492,-0.43368 -0.11952,-0.4985 -0.14078,-0.6251 -0.0125,-0.0741 -0.034,-0.18446 -0.0479,-0.24513 -0.0139,-0.0607 -0.0361,-0.1765 -0.0493,-0.25739 -0.0132,-0.0809 -0.0454,-0.24844 -0.0716,-0.37231 -0.0261,-0.12388 -0.0475,-0.26464 -0.0475,-0.31281 0,-0.0482 -0.0216,-0.1847 -0.0481,-0.30341 -0.0264,-0.11871 -0.0552,-0.30888 -0.0638,-0.4226 -0.009,-0.11372 -0.0312,-0.26932 -0.0501,-0.34577 -0.0189,-0.0765 -0.0453,-0.29156 -0.0586,-0.47802 -0.0133,-0.18645 -0.0356,-0.38313 -0.0496,-0.43706 -0.014,-0.0539 -0.0354,-0.27456 -0.0475,-0.49027 -0.0121,-0.21572 -0.0366,-0.50805 -0.0544,-0.64961 -0.0458,-0.3642 -0.046,-4.63598 -2.3e-4,-4.97626 0.0172,-0.12808 0.0417,-0.41489 0.0543,-0.63735 0.0126,-0.22246 0.0342,-0.4486 0.0478,-0.50253 0.0137,-0.0539 0.0361,-0.24146 0.0497,-0.41673 0.0137,-0.17527 0.0468,-0.42559 0.0736,-0.55627 0.0268,-0.13068 0.049,-0.29063 0.0492,-0.35545 2.8e-4,-0.0648 0.0167,-0.18955 0.0364,-0.27719 0.0198,-0.0876 0.0472,-0.25862 0.061,-0.37996 0.0138,-0.12134 0.0412,-0.2762 0.0608,-0.34413 0.0196,-0.0679 0.0426,-0.18927 0.051,-0.26965 0.008,-0.0804 0.0303,-0.19578 0.0487,-0.25645 0.0184,-0.0607 0.045,-0.1965 0.0591,-0.30185 0.0141,-0.10534 0.0364,-0.21161 0.0495,-0.23615 0.0131,-0.0245 0.0361,-0.12588 0.051,-0.2252 0.0149,-0.0993 0.0483,-0.25068 0.0742,-0.33637 0.0259,-0.0857 0.0471,-0.18496 0.0471,-0.22062 0,-0.0356 0.0212,-0.13102 0.0471,-0.21191 0.0467,-0.14585 0.10377,-0.36375 0.15078,-0.57607 0.0134,-0.0607 0.0471,-0.18753 0.0749,-0.2819 0.0277,-0.0944 0.0711,-0.2433 0.0963,-0.33094 0.0252,-0.0876 0.0636,-0.21449 0.0853,-0.2819 0.0217,-0.0674 0.054,-0.17959 0.0718,-0.24929 0.0178,-0.0697 0.0405,-0.13978 0.0503,-0.15575 0.01,-0.016 0.0379,-0.10236 0.0623,-0.19196 0.0244,-0.0896 0.0639,-0.22084 0.0878,-0.29162 l 0.0434,-0.1287 h 3.91573 c 2.15365,0 3.92052,0.008 3.92638,0.0184 0.006,0.0101 -0.077,0.19488 -0.18416,0.4106 -0.10715,0.21572 -0.20919,0.43083 -0.22676,0.47801 -0.0176,0.0472 -0.0654,0.1575 -0.10619,0.24514 -0.13131,0.28181 -0.22605,0.50985 -0.22605,0.54408 0,0.0183 -0.0151,0.0551 -0.0335,0.0817 -0.0184,0.0266 -0.0416,0.0759 -0.0516,0.10964 -0.01,0.0337 -0.0377,0.10541 -0.0617,0.15934 -0.0793,0.17854 -0.17198,0.42941 -0.17198,0.46558 0,0.0196 -0.0213,0.0828 -0.0473,0.14047 -0.0464,0.10273 -0.0947,0.23999 -0.16189,0.46029 -0.0185,0.0607 -0.0501,0.15995 -0.0702,0.22062 -0.0201,0.0607 -0.0655,0.20959 -0.10085,0.33093 -0.0354,0.12134 -0.0857,0.28681 -0.11192,0.36771 -0.0262,0.0809 -0.0475,0.17149 -0.0474,0.20132 1.5e-4,0.0298 -0.0218,0.11023 -0.0488,0.17864 -0.027,0.0684 -0.049,0.15182 -0.049,0.18537 0,0.0335 -0.022,0.12346 -0.0488,0.19982 -0.0268,0.0764 -0.0561,0.19467 -0.065,0.26291 -0.009,0.0682 -0.0366,0.18371 -0.0615,0.25661 -0.0249,0.0729 -0.0453,0.16734 -0.0453,0.20987 0,0.0425 -0.0212,0.1594 -0.0471,0.25969 -0.0259,0.10028 -0.0545,0.24852 -0.0635,0.32942 -0.009,0.0809 -0.0324,0.20775 -0.052,0.2819 -0.0196,0.0742 -0.0455,0.23963 -0.0576,0.36771 -0.0121,0.12808 -0.0392,0.29862 -0.0602,0.37898 -0.021,0.0804 -0.0384,0.21825 -0.0387,0.30642 -2.7e-4,0.0882 -0.0118,0.23202 -0.0257,0.31965 -0.0139,0.0876 -0.0357,0.22553 -0.0485,0.30642 -0.0128,0.0809 -0.0341,0.41735 -0.0473,0.74767 -0.0132,0.33032 -0.036,0.67228 -0.0508,0.75992 -0.0519,0.30848 0.0111,2.44476 0.0889,3.01517 0.0212,0.15505 0.0488,0.41428 0.0614,0.57607 0.0126,0.16179 0.0449,0.40108 0.0717,0.53175 0.0268,0.13068 0.0489,0.28512 0.0491,0.34319 1.7e-4,0.0581 0.0168,0.16627 0.0369,0.24043 0.0201,0.0741 0.0473,0.2348 0.0603,0.35701 0.013,0.1222 0.0391,0.26009 0.058,0.30642 0.0188,0.0463 0.0414,0.15788 0.0502,0.24789 0.009,0.09 0.0312,0.20033 0.0499,0.24514 0.0187,0.0448 0.0414,0.13663 0.0505,0.20404 0.009,0.0674 0.0362,0.18875 0.0603,0.26965 0.0241,0.0809 0.0561,0.20775 0.0712,0.2819 0.0151,0.0742 0.0558,0.23411 0.0906,0.35545 0.0348,0.12134 0.0794,0.29072 0.0992,0.3764 0.0198,0.0857 0.0506,0.18496 0.0685,0.22063 0.0179,0.0357 0.0399,0.10345 0.0487,0.15063 0.009,0.0472 0.0367,0.14096 0.0619,0.20837 0.0695,0.18634 0.10146,0.28032 0.15023,0.44124 0.0245,0.0809 0.0737,0.2243 0.10929,0.31868 0.0621,0.16467 0.108,0.2883 0.1956,0.52704 0.0223,0.0607 0.0619,0.15516 0.0881,0.20998 0.0262,0.0548 0.0476,0.11378 0.0476,0.13104 0,0.0173 0.016,0.0607 0.0357,0.0964 0.0196,0.0358 0.0703,0.1478 0.11267,0.24892 0.32157,0.7676 0.76208,1.62186 1.29566,2.51264 0.22114,0.36918 0.66798,1.03026 0.84454,1.24945 0.0655,0.0813 0.12999,0.17112 0.14334,0.19959 0.0322,0.0687 -0.007,0.13976 -0.21895,0.40174 -0.4325,0.53339 -0.99902,1.38622 -1.3569,2.04268 -0.095,0.17435 -0.4285,0.84541 -0.51369,1.03377 -0.14649,0.32393 -0.22346,0.50823 -0.31735,0.75992 -0.0302,0.0809 -0.0757,0.19426 -0.10121,0.25192 -0.0255,0.0577 -0.0464,0.12385 -0.0466,0.14708 -1.2e-4,0.0232 -0.0274,0.0974 -0.0605,0.16481 -0.0332,0.0674 -0.0606,0.14811 -0.0611,0.17931 -4.3e-4,0.0312 -0.0213,0.10843 -0.0465,0.1716 -0.0469,0.11782 -0.0784,0.22527 -0.14146,0.48256 -0.0198,0.0809 -0.0577,0.21878 -0.0841,0.30642 -0.0265,0.0876 -0.0479,0.18792 -0.0477,0.22285 1.9e-4,0.0349 -0.0163,0.11767 -0.0366,0.18385 -0.0203,0.0662 -0.0532,0.21962 -0.0731,0.34096 -0.0199,0.12134 -0.0529,0.28094 -0.0733,0.35466 -0.0205,0.0737 -0.0372,0.17401 -0.0372,0.22285 0,0.0489 -0.0168,0.14297 -0.0373,0.20916 -0.0205,0.0662 -0.0485,0.20858 -0.0622,0.31644 -0.0441,0.34632 -0.0564,0.35185 -0.26002,0.1168 z m 27.41423,0.14706 c -0.0199,-0.0321 -0.0556,-0.19611 -0.0922,-0.4232 -0.0141,-0.0876 -0.0465,-0.26413 -0.0719,-0.39221 -0.0254,-0.12809 -0.0528,-0.28252 -0.0609,-0.3432 -0.0264,-0.19819 -0.18563,-0.92274 -0.26134,-1.1889 -0.10624,-0.3735 -0.17473,-0.59349 -0.21895,-0.70318 -0.0254,-0.0632 -0.0463,-0.13283 -0.0463,-0.1548 0,-0.022 -0.0205,-0.0916 -0.0457,-0.15479 -0.0251,-0.0632 -0.0686,-0.17553 -0.0966,-0.24968 -0.36238,-0.9585 -0.73628,-1.73648 -1.23704,-2.57393 -0.17449,-0.29181 -0.6008,-0.91435 -0.85766,-1.25244 -0.33265,-0.43785 -0.3857,-0.51341 -0.38561,-0.5493 0,-0.0135 0.0785,-0.12931 0.17442,-0.2574 0.79576,-1.06287 1.61776,-2.51807 2.20168,-3.89766 0.0428,-0.10111 0.0876,-0.20591 0.0996,-0.23287 0.0302,-0.0681 0.261,-0.67442 0.33587,-0.88249 0.034,-0.0944 0.076,-0.21021 0.0934,-0.2574 0.0174,-0.0472 0.059,-0.17404 0.0925,-0.2819 0.0335,-0.10786 0.0832,-0.26781 0.11034,-0.35545 0.0478,-0.15393 0.12894,-0.42839 0.22479,-0.75992 0.0253,-0.0876 0.0535,-0.19795 0.0625,-0.24513 0.009,-0.0472 0.0364,-0.1575 0.0607,-0.24514 0.0243,-0.0876 0.0673,-0.26413 0.0954,-0.39222 0.0282,-0.12808 0.0728,-0.32664 0.0992,-0.44124 0.0263,-0.1146 0.055,-0.26904 0.0638,-0.34319 0.009,-0.0742 0.0269,-0.17088 0.0403,-0.21494 0.0261,-0.0856 0.0977,-0.53305 0.1558,-0.97397 0.0195,-0.14831 0.0478,-0.34687 0.0628,-0.44124 0.025,-0.15725 0.094,-0.87405 0.14521,-1.50759 0.028,-0.34615 0.0288,-2.49314 10e-4,-2.83132 -0.0579,-0.70685 -0.0798,-0.93826 -0.12626,-1.33599 -0.0802,-0.68638 -0.16682,-1.28459 -0.22884,-1.58112 -0.0645,-0.30855 -0.1164,-0.56096 -0.14862,-0.72315 -0.0692,-0.34829 -0.24811,-1.05117 -0.38063,-1.49533 -0.0959,-0.32138 -0.37337,-1.18142 -0.41745,-1.29381 -0.025,-0.0637 -0.1226,-0.31428 -0.21698,-0.55696 -0.25707,-0.66102 -0.28068,-0.71587 -0.55939,-1.29922 -0.14172,-0.29662 -0.25916,-0.56137 -0.26097,-0.58833 -0.004,-0.0565 -0.33833,-0.0536 4.90794,-0.0428 l 2.88887,0.006 0.0411,0.0919 c 0.0226,0.0505 0.0856,0.2629 0.13997,0.47188 0.0544,0.20898 0.12152,0.45718 0.14919,0.55156 0.10451,0.35647 0.28421,1.02938 0.31626,1.18428 0.012,0.0581 0.0435,0.1905 0.0699,0.29416 0.0826,0.32451 0.14631,0.60141 0.1617,0.70327 0.008,0.0539 0.0301,0.1532 0.0488,0.22062 0.034,0.12302 0.0979,0.44695 0.13774,0.69863 0.0117,0.0742 0.043,0.25617 0.0695,0.40448 0.0767,0.42991 0.14388,0.84694 0.15985,0.9928 0.008,0.0742 0.0311,0.23962 0.0511,0.3677 0.0927,0.59536 0.21984,2.07398 0.25915,3.01517 0.0284,0.67905 0.0103,3.11276 -0.0263,3.55447 -0.0106,0.12808 -0.0374,0.4535 -0.0594,0.72315 -0.0537,0.65696 -0.13193,1.39927 -0.17446,1.65467 -0.0191,0.1146 -0.0417,0.28006 -0.0503,0.3677 -0.009,0.0876 -0.0357,0.27516 -0.0604,0.41673 -0.0246,0.14157 -0.0511,0.30703 -0.0588,0.3677 -0.0268,0.21031 -0.19678,1.11202 -0.26113,1.38502 -0.0254,0.10786 -0.0532,0.24023 -0.0617,0.29416 -0.015,0.0954 -0.0628,0.29876 -0.1583,0.67413 -0.10734,0.42183 -0.12891,0.50896 -0.15776,0.63735 -0.0167,0.0742 -0.0483,0.19549 -0.0703,0.26965 -0.022,0.0742 -0.0688,0.23962 -0.10412,0.3677 -0.0353,0.12809 -0.0838,0.29355 -0.1078,0.36771 -0.024,0.0742 -0.0738,0.2341 -0.1107,0.35544 -0.26863,0.8842 -0.61081,1.82077 -1.06132,2.90486 -0.32715,0.78726 -1.00931,2.18737 -1.41246,2.89903 -0.97868,1.72763 -2.04028,3.22745 -3.21407,4.54084 -0.58056,0.64959 -0.63919,0.71029 -0.65754,0.68059 z"
         id="path1407" /></g></g></svg>
